<?xml version="1.0" encoding="UTF-8" standalone="no"?>
<svg
   xmlns:dc="http://purl.org/dc/elements/1.1/"
   xmlns:cc="http://creativecommons.org/ns#"
   xmlns:rdf="http://www.w3.org/1999/02/22-rdf-syntax-ns#"
   xmlns:svg="http://www.w3.org/2000/svg"
   xmlns="http://www.w3.org/2000/svg"
   xmlns:xlink="http://www.w3.org/1999/xlink"
   version="1.1"
   id="Calque_1"
   x="0px"
   y="0px"
   viewBox="0 0 1199.6484 627.99998"
   xml:space="preserve"
   width="1200"
   height="628"><metadata
   id="metadata19"><rdf:RDF><cc:Work
       rdf:about=""><dc:format>image/svg+xml</dc:format><dc:type
         rdf:resource="http://purl.org/dc/dcmitype/StillImage" /><dc:title></dc:title></cc:Work></rdf:RDF></metadata><defs
   id="defs17" />
<style
   type="text/css"
   id="style2">
	.st0{fill:#5AB88F;}
	.st1{fill:#102335;}
	.st2{fill:#E73452;}
</style>

<rect
   style="opacity:1;fill:#33658a;fill-opacity:1;stroke:none;stroke-width:3.0999999;stroke-miterlimit:4;stroke-dasharray:none;stroke-dashoffset:0;stroke-opacity:1"
   id="rect828"
   width="1161.4261"
   height="628"
   x="38.423843"
   y="1.1368684e-13"
   rx="2.5000002"
   ry="2.5000002" />



<text
   xml:space="preserve"
   style="font-style:normal;font-variant:normal;font-weight:900;font-stretch:normal;font-size:74.66666412px;line-height:125%;font-family:Chivo;-inkscape-font-specification:'Chivo Heavy';text-align:end;letter-spacing:0px;word-spacing:0px;text-anchor:end;fill:#eff1ed;fill-opacity:1;stroke:none;stroke-width:1px;stroke-linecap:butt;stroke-linejoin:miter;stroke-opacity:1"
   x="1384.5366"
   y="220.66359"
   id="text896"><tspan
     id="tspan894"
     x="1166.2114"
     y="220.66359"
     style="font-style:normal;font-variant:normal;font-weight:bold;font-stretch:normal;font-family:'Bona Nova';-inkscape-font-specification:'Bona Nova Bold';text-align:end;text-anchor:end;fill:#eff1ed;fill-opacity:1">{name}</tspan></text>








<flowRoot
   xml:space="preserve"
   id="flowRoot834"
   style="font-style:normal;font-variant:normal;font-weight:normal;font-stretch:normal;font-size:48px;line-height:125%;font-family:Overpass;-inkscape-font-specification:Overpass;text-align:center;letter-spacing:0px;word-spacing:0px;text-anchor:middle;fill:#eff1ed;fill-opacity:1;stroke:none;stroke-width:1px;stroke-linecap:butt;stroke-linejoin:miter;stroke-opacity:1"
   transform="translate(-7.5693095,116.82617)"><flowRegion
     id="flowRegion836"
     style="font-style:normal;font-variant:normal;font-weight:normal;font-stretch:normal;font-size:48px;font-family:Overpass;-inkscape-font-specification:Overpass;text-align:center;text-anchor:middle;fill:#eff1ed;fill-opacity:1;stroke:none"><rect
       id="rect838"
       width="536.32843"
       height="313.31903"
       x="591.62006"
       y="200.4117"
       style="font-style:normal;font-variant:normal;font-weight:normal;font-stretch:normal;font-size:48px;font-family:Overpass;-inkscape-font-specification:Overpass;text-align:center;text-anchor:middle;fill:#eff1ed;fill-opacity:1;stroke:none" /></flowRegion><flowPara
     id="flowPara824"
     style="font-style:normal;font-variant:normal;font-weight:normal;font-stretch:normal;font-family:Karla;-inkscape-font-specification:Karla;fill:#eff1ed;fill-opacity:1">Les tribunes de {name} passées à la moulinette !</flowPara></flowRoot><rect
   ry="2.5000002"
   rx="2.5000002"
   y="1.1368684e-13"
   x="-38.423843"
   height="628"
   width="38.57383"
   id="rect830"
   style="opacity:1;fill:#a41623;fill-opacity:1;stroke:none;stroke-width:3.0999999;stroke-miterlimit:4;stroke-dasharray:none;stroke-dashoffset:0;stroke-opacity:1"
   transform="scale(-1,1)" /><rect
   transform="matrix(0,-1,-1,0,0,0)"
   style="opacity:1;fill:#eff1ed;fill-opacity:1;stroke:none;stroke-width:3.0999999;stroke-miterlimit:4;stroke-dasharray:none;stroke-dashoffset:0;stroke-opacity:1"
   id="rect823"
   width="11.689126"
   height="1091.9607"
   x="-244.14102"
   y="-1163.484"
   rx="2.5000002"
   ry="2.5000005" />















<g
   id="g899"
   transform="matrix(1.2526149,0,0,1.2526149,22.293564,-158.64216)"
   style="stroke-width:0.79832995"><g
     style="stroke-width:2.10985374"
     transform="matrix(0.37838162,0,0,0.37838162,269.11532,392.30433)"
     id="g874"><path
   style="opacity:1;fill:#eff1ed;fill-opacity:1;stroke:none;stroke-width:11.10015678;stroke-miterlimit:4;stroke-dasharray:none;stroke-dashoffset:0;stroke-opacity:1"
   d="m 348.76172,291.23438 a 18.818924,18.818924 0 0 0 -1.88086,0.0371 18.818924,18.818924 0 0 0 -17.49024,19.64454 18.818924,18.818924 0 0 0 9.39844,15.40429 v 8.20117 h -32.23437 -19.05664 v 19.05469 17.54492 a 82.103831,44.961618 0 0 0 -0.62696,0.006 82.103831,44.961618 0 0 0 -76.2832,42.64844 H 170.72461 V 631.10156 H 414.42969 V 413.77539 h -39.93555 l -0.16602,-1.95898 a 82.103831,44.961618 0 0 0 -67.77343,-40.08594 v -18.1543 h 51.28906 v -19.05469 -8.34765 a 18.818924,18.818924 0 0 0 9.16406,-16.12891 l -0.082,-1.74219 a 18.818924,18.818924 0 0 0 -18.16406,-17.06835 z"
   transform="translate(-0.17578089)"
   id="rect825" /><text
   xml:space="preserve"
   style="font-style:normal;font-variant:normal;font-weight:normal;font-stretch:normal;font-size:27.88678741px;line-height:125%;font-family:Tofino;-inkscape-font-specification:Tofino;letter-spacing:0px;word-spacing:0px;fill:#eff1ed;fill-opacity:1;stroke:none;stroke-width:2.10985374px;stroke-linecap:butt;stroke-linejoin:miter;stroke-opacity:1"
   x="121.9451"
   y="363.55011"
   id="text839"
   transform="rotate(-5.4422563)"><tspan
     id="tspan837"
     x="121.9451"
     y="363.55011"
     style="fill:#eff1ed;fill-opacity:1;stroke-width:2.10985374px">Sécurité</tspan></text>


<text
   xml:space="preserve"
   style="font-style:normal;font-variant:normal;font-weight:normal;font-stretch:normal;font-size:27.88678932px;line-height:125%;font-family:Tofino;-inkscape-font-specification:Tofino;letter-spacing:0px;word-spacing:0px;fill:#eff1ed;fill-opacity:1;stroke:none;stroke-width:2.10985374px;stroke-linecap:butt;stroke-linejoin:miter;stroke-opacity:1"
   x="123.77261"
   y="318.5769"
   id="text843"
   transform="rotate(-10.102184)"><tspan
     id="tspan841"
     x="123.77261"
     y="318.5769"
     style="fill:#eff1ed;fill-opacity:1;stroke-width:2.10985374px">Écologie</tspan></text>


<text
   xml:space="preserve"
   style="font-style:normal;font-variant:normal;font-weight:normal;font-stretch:normal;font-size:27.88678932px;line-height:125%;font-family:Tofino;-inkscape-font-specification:Tofino;letter-spacing:0px;word-spacing:0px;fill:#eff1ed;fill-opacity:1;stroke:none;stroke-width:2.10985374px;stroke-linecap:butt;stroke-linejoin:miter;stroke-opacity:1"
   x="119.52989"
   y="290.81161"
   id="text847"
   transform="rotate(5.3670163)"><tspan
     id="tspan845"
     x="119.52989"
     y="290.81161"
     style="fill:#eff1ed;fill-opacity:1;stroke-width:2.10985374px">Solidarité</tspan></text>


<text
   xml:space="preserve"
   style="font-style:normal;font-variant:normal;font-weight:normal;font-stretch:normal;font-size:27.88678932px;line-height:125%;font-family:Tofino;-inkscape-font-specification:Tofino;letter-spacing:0px;word-spacing:0px;fill:#eff1ed;fill-opacity:1;stroke:none;stroke-width:2.10985374px;stroke-linecap:butt;stroke-linejoin:miter;stroke-opacity:1"
   x="237.40874"
   y="89.053207"
   id="text851"
   transform="rotate(36.474701)"><tspan
     id="tspan849"
     x="237.40874"
     y="89.053207"
     style="fill:#eff1ed;fill-opacity:1;stroke-width:2.10985374px">Taxes</tspan></text>


<text
   transform="rotate(-10.102184)"
   id="text855"
   y="541.70227"
   x="360.15018"
   style="font-style:normal;font-variant:normal;font-weight:normal;font-stretch:normal;font-size:27.88678932px;line-height:125%;font-family:Tofino;-inkscape-font-specification:Tofino;letter-spacing:0px;word-spacing:0px;fill:#eff1ed;fill-opacity:1;stroke:none;stroke-width:2.10985374px;stroke-linecap:butt;stroke-linejoin:miter;stroke-opacity:1"
   xml:space="preserve"><tspan
     style="fill:#eff1ed;fill-opacity:1;stroke-width:2.10985374px"
     y="541.70227"
     x="360.15018"
     id="tspan853">12</tspan></text>


<text
   xml:space="preserve"
   style="font-style:normal;font-variant:normal;font-weight:normal;font-stretch:normal;font-size:27.88678932px;line-height:125%;font-family:Tofino;-inkscape-font-specification:Tofino;letter-spacing:0px;word-spacing:0px;fill:#eff1ed;fill-opacity:1;stroke:none;stroke-width:2.10985374px;stroke-linecap:butt;stroke-linejoin:miter;stroke-opacity:1"
   x="646.92926"
   y="105.45765"
   id="text859"
   transform="rotate(39.572746)"><tspan
     id="tspan857"
     x="646.92926"
     y="105.45765"
     style="fill:#eff1ed;fill-opacity:1;stroke-width:2.10985374px">9</tspan></text>


<text
   transform="rotate(39.572746)"
   id="text863"
   y="105.45765"
   x="646.92926"
   style="font-style:normal;font-variant:normal;font-weight:normal;font-stretch:normal;font-size:27.88678932px;line-height:125%;font-family:Tofino;-inkscape-font-specification:Tofino;letter-spacing:0px;word-spacing:0px;fill:#eff1ed;fill-opacity:1;stroke:none;stroke-width:2.10985374px;stroke-linecap:butt;stroke-linejoin:miter;stroke-opacity:1"
   xml:space="preserve"><tspan
     style="fill:#eff1ed;fill-opacity:1;stroke-width:2.10985374px"
     y="105.45765"
     x="646.92926"
     id="tspan861">9</tspan></text>


<text
   xml:space="preserve"
   style="font-style:normal;font-variant:normal;font-weight:normal;font-stretch:normal;font-size:27.88678932px;line-height:125%;font-family:Tofino;-inkscape-font-specification:Tofino;letter-spacing:0px;word-spacing:0px;fill:#eff1ed;fill-opacity:1;stroke:none;stroke-width:2.10985374px;stroke-linecap:butt;stroke-linejoin:miter;stroke-opacity:1"
   x="612.11621"
   y="302.6077"
   id="text867"
   transform="rotate(20.600779)"><tspan
     id="tspan865"
     x="612.11621"
     y="302.6077"
     style="fill:#eff1ed;fill-opacity:1;stroke-width:2.10985374px">67</tspan></text>


<path
   style="opacity:1;fill:#eff1ed;fill-opacity:1;stroke:none;stroke-width:11.10015678;stroke-miterlimit:4;stroke-dasharray:none;stroke-dashoffset:0;stroke-opacity:1"
   d="m 481.17782,523.97168 a 26.716325,26.716325 0 0 0 -2.58162,-0.68302 26.716325,26.716325 0 0 0 -31.53818,19.99135 26.716325,26.716325 0 0 0 19.25568,31.9942 26.716325,26.716325 0 0 0 32.43276,-18.50875 l 0.56871,-2.40911 a 26.716325,26.716325 0 0 0 -18.13735,-30.38467 z m -14.19292,8.3935 a 6.0971686,6.0971686 0 0 1 4.13868,6.93361 l -0.12883,0.55023 a 6.0971686,6.0971686 0 0 1 -7.40283,4.22396 6.0971686,6.0971686 0 0 1 -4.39513,-7.30145 6.0971686,6.0971686 0 0 1 7.19898,-4.56254 6.0971686,6.0971686 0 0 1 0.58913,0.15619 z m 20.37926,5.8247 a 6.0971686,6.0971686 0 0 1 4.13868,6.93361 l -0.1307,0.54969 a 6.0971686,6.0971686 0 0 1 -7.40097,4.22449 6.0971686,6.0971686 0 0 1 -4.39512,-7.30144 6.0971686,6.0971686 0 0 1 7.19897,-4.56255 6.0971686,6.0971686 0 0 1 0.58914,0.1562 z m -3.32776,23.01456 c -11.38733,5.75655 -19.24577,3.61839 -23.54306,-6.48925 7.08021,4.84893 15.30885,5.6779 23.54306,6.48925 z"
   id="path869" /><path
   style="opacity:1;fill:#eff1ed;fill-opacity:1;stroke:none;stroke-width:11.10015678;stroke-miterlimit:4;stroke-dasharray:none;stroke-dashoffset:0;stroke-opacity:1"
   d="m 466.74953,580.5407 a 16.003657,16.003657 0 0 0 -1.59934,0.0316 16.003657,16.003657 0 0 0 -14.87492,16.70708 16.003657,16.003657 0 0 0 16.35726,15.25751 16.003657,16.003657 0 0 0 15.63307,-15.99926 l -0.069,-1.48235 a 16.003657,16.003657 0 0 0 -15.44704,-14.51457 z m -6.79398,7.17072 a 3.652336,3.652336 0 0 1 3.5251,3.31216 l 0.0163,0.33812 a 3.652336,3.652336 0 0 1 -3.56839,3.65146 3.652336,3.652336 0 0 1 -3.73218,-3.48181 3.652336,3.652336 0 0 1 3.39406,-3.81291 3.652336,3.652336 0 0 1 0.36503,-0.007 z m 12.69645,0 a 3.652336,3.652336 0 0 1 3.52511,3.31216 l 0.0163,0.33812 a 3.652336,3.652336 0 0 1 -3.56839,3.65146 3.652336,3.652336 0 0 1 -3.73219,-3.48181 3.652336,3.652336 0 0 1 3.39407,-3.81291 3.652336,3.652336 0 0 1 0.36503,-0.007 z m -12.75612,13.94128 h 14.35195 v 3.58829 h -14.35195 z"
   id="path877" /><path
   style="opacity:1;fill:#eff1ed;fill-opacity:1;stroke:none;stroke-width:11.10015678;stroke-miterlimit:4;stroke-dasharray:none;stroke-dashoffset:0;stroke-opacity:1"
   d="m 516.3823,557.24124 a 26.716326,26.716326 0 0 0 -2.61422,0.54503 26.716326,26.716326 0 0 0 -19.25097,31.99549 26.716326,26.716326 0 0 0 31.54218,19.99 26.716326,26.716326 0 0 0 20.71236,-31.07182 l -0.5681,-2.40917 A 26.716326,26.716326 0 0 0 516.3823,557.24124 Z m -8.93336,13.85946 a 6.0971686,6.0971686 0 0 1 6.80489,4.34706 l 0.13115,0.54969 a 6.0971686,6.0971686 0 0 1 -4.72847,7.09122 6.0971686,6.0971686 0 0 1 -7.1989,-4.56117 6.0971686,6.0971686 0 0 1 4.3946,-7.30272 6.0971686,6.0971686 0 0 1 0.59673,-0.12408 z m 20.83053,-3.91534 a 6.0971686,6.0971686 0 0 1 6.8049,4.34705 l 0.12923,0.55006 a 6.0971686,6.0971686 0 0 1 -4.72656,7.09085 6.0971686,6.0971686 0 0 1 -7.19888,-4.56117 6.0971686,6.0971686 0 0 1 4.39459,-7.30272 6.0971686,6.0971686 0 0 1 0.59672,-0.12407 z m -5.7088,23.80408 c 4.0082,-0.71091 8.71665,0.635 14.11978,4.02742 -8.35492,-0.38428 -16.36822,1.04611 -24.04222,4.28451 2.60674,-4.83349 5.91422,-7.60102 9.92244,-8.31193 z"
   id="path885" /><path
   id="path917"
   d="m 348.58594,288.1328 a 18.818924,18.818924 0 0 0 -1.88086,0.0371 18.818924,18.818924 0 0 0 -17.49024,19.64454 18.818924,18.818924 0 0 0 9.39844,15.40429 v 8.20117 h -32.23437 -19.05664 v 19.05469 17.54492 a 82.103831,44.961618 0 0 0 -0.62696,0.006 82.103831,44.961618 0 0 0 -76.2832,42.64844 H 170.54883 V 627.99998 H 414.25391 V 410.67381 h -39.93555 l -0.16602,-1.95898 a 82.103831,44.961618 0 0 0 -67.77343,-40.08594 v -18.1543 h 51.28906 v -19.05469 -8.34765 a 18.818924,18.818924 0 0 0 9.16406,-16.12891 l -0.082,-1.74219 A 18.818924,18.818924 0 0 0 348.58594,288.1328 Z"
   style="opacity:1;fill:#eff1ed;fill-opacity:1;stroke:none;stroke-width:11.10015678;stroke-miterlimit:4;stroke-dasharray:none;stroke-dashoffset:0;stroke-opacity:1" /></g><image
     xlink:href="{image}"
     y="365.86993"
     x="38.423843"
     id="image850"
     preserveAspectRatio="none"
     height="262.13007"
     width="252.30019"
     style="stroke-width:1.21821952" /></g></svg>