<?xml version="1.0" encoding="UTF-8" standalone="no"?>
<!-- Created with Inkscape (http://www.inkscape.org/) -->

<svg
   xmlns:dc="http://purl.org/dc/elements/1.1/"
   xmlns:cc="http://creativecommons.org/ns#"
   xmlns:rdf="http://www.w3.org/1999/02/22-rdf-syntax-ns#"
   xmlns:svg="http://www.w3.org/2000/svg"
   xmlns="http://www.w3.org/2000/svg"
   xmlns:sodipodi="http://sodipodi.sourceforge.net/DTD/sodipodi-0.dtd"
   xmlns:inkscape="http://www.inkscape.org/namespaces/inkscape"
   width="385mm"
   height="400mm"
   viewBox="0 0 385 400"
   version="1.1"
   id="svg8"
   inkscape:version="0.92.5 (2060ec1f9f, 2020-04-08)"
   sodipodi:docname="default.svg">
  <defs
     id="defs2" />
  <sodipodi:namedview
     id="base"
     pagecolor="#ffffff"
     bordercolor="#666666"
     borderopacity="1.0"
     inkscape:pageopacity="0.0"
     inkscape:pageshadow="2"
     inkscape:zoom="0.35"
     inkscape:cx="-247.14289"
     inkscape:cy="741.62968"
     inkscape:document-units="mm"
     inkscape:current-layer="layer1"
     showgrid="false"
     fit-margin-top="0"
     fit-margin-left="0"
     fit-margin-right="0"
     fit-margin-bottom="0"
     inkscape:window-width="1855"
     inkscape:window-height="1056"
     inkscape:window-x="65"
     inkscape:window-y="24"
     inkscape:window-maximized="1" />
  <metadata
     id="metadata5">
    <rdf:RDF>
      <cc:Work
         rdf:about="">
        <dc:format>image/svg+xml</dc:format>
        <dc:type
           rdf:resource="http://purl.org/dc/dcmitype/StillImage" />
        <dc:title />
      </cc:Work>
    </rdf:RDF>
  </metadata>
  <g
     inkscape:label="Layer 1"
     inkscape:groupmode="layer"
     id="layer1"
     transform="translate(208.64285,103)">
    <path
       sodipodi:nodetypes="csssc"
       inkscape:connector-curvature="0"
       id="path815"
       d="m -54.443461,94.344451 c 10e-7,31.964739 -25.519514,58.082689 -57.475729,58.823509 -31.95633,0.74081 -58.65887,-24.16654 -60.1401,-56.096933 -1.48123,-31.930398 22.80071,-59.202858 54.68838,-61.423701 31.887589,-2.220843 59.715487,21.422375 62.674754,53.249832"
       style="opacity:1;fill:#b3b3b3;fill-opacity:1;stroke:none;stroke-width:1.39199996;stroke-miterlimit:4;stroke-dasharray:none;stroke-dashoffset:0;stroke-opacity:1" />
    <path
       style="opacity:1;fill:#b3b3b3;fill-opacity:1;stroke:none;stroke-width:1.39199996;stroke-miterlimit:4;stroke-dasharray:none;stroke-dashoffset:0;stroke-opacity:1"
       d="m 141.34855,94.344451 c 0,31.964739 -25.51966,58.082689 -57.475896,58.823509 C 51.916504,153.90877 25.214117,129.00142 23.732896,97.071027 22.251672,65.140629 46.533477,37.868169 78.420964,35.647326 110.30851,33.426483 138.13657,57.069701 141.09585,88.897158"
       id="path820"
       inkscape:connector-curvature="0"
       sodipodi:nodetypes="csssc" />
    <path
       style="opacity:1;fill:#cccccc;fill-opacity:1;stroke:none;stroke-width:1.39199996;stroke-miterlimit:4;stroke-dasharray:none;stroke-dashoffset:0;stroke-opacity:1"
       d="m 59.074409,37.93517 c 10e-7,40.862136 -32.622874,74.25004 -73.474034,75.19706 -40.85116,0.94702 -74.986163,-30.8933 -76.879688,-71.71154 -1.893527,-40.81824113 29.147129,-75.682006 69.910522,-78.521022 40.763393,-2.839016 76.337187,27.3853046 80.120167,68.071952"
       id="path817"
       inkscape:connector-curvature="0"
       sodipodi:nodetypes="csssc" />
    <path
       sodipodi:nodetypes="sssccss"
       inkscape:connector-curvature="0"
       id="path818"
       d="m -169.4614,146.2058 h 112.356861 c 9.500627,0 17.149146,7.64852 17.149146,17.14914 V 297 H -186.61059 V 163.35494 c 0,-9.50062 7.64851,-17.14914 17.14919,-17.14914 z"
       style="opacity:1;fill:#b3b3b3;fill-opacity:1;stroke:none;stroke-width:1.39199996;stroke-miterlimit:4;stroke-dasharray:none;stroke-dashoffset:0;stroke-opacity:1" />
    <path
       style="opacity:1;fill:#b3b3b3;fill-opacity:1;stroke:none;stroke-width:1.39199996;stroke-miterlimit:4;stroke-dasharray:none;stroke-dashoffset:0;stroke-opacity:1"
       d="M 26.330771,146.2058 H 138.68746 c 9.50068,0 17.14924,7.64852 17.14924,17.14914 V 297 H 9.1816777 V 163.35494 c 0,-9.50062 7.6484673,-17.14914 17.1490933,-17.14914 z"
       id="path822"
       inkscape:connector-curvature="0"
       sodipodi:nodetypes="sssccss" />
    <path
       style="opacity:1;fill:#cccccc;fill-opacity:1;stroke:none;stroke-width:1.39199996;stroke-miterlimit:4;stroke-dasharray:none;stroke-dashoffset:0;stroke-opacity:1"
       d="M -87.958324,104.23215 H 55.672619 c 12.145131,0 21.922619,9.77749 21.922619,21.92262 V 297 H -109.88094 V 126.15477 c 0,-12.14513 9.77748,-21.92262 21.922616,-21.92262 z"
       id="rect819"
       inkscape:connector-curvature="0"
       sodipodi:nodetypes="sssccss" />
  </g>
</svg>
