<?xml version="1.0" encoding="UTF-8" standalone="no"?>
<!-- Created with Inkscape (http://www.inkscape.org/) -->

<svg
   xmlns:dc="http://purl.org/dc/elements/1.1/"
   xmlns:cc="http://creativecommons.org/ns#"
   xmlns:rdf="http://www.w3.org/1999/02/22-rdf-syntax-ns#"
   xmlns:svg="http://www.w3.org/2000/svg"
   xmlns="http://www.w3.org/2000/svg"
   xmlns:sodipodi="http://sodipodi.sourceforge.net/DTD/sodipodi-0.dtd"
   xmlns:inkscape="http://www.inkscape.org/namespaces/inkscape"
   width="139.06432mm"
   height="55.7043mm"
   viewBox="0 0 139.06432 55.7043"
   version="1.1"
   id="svg891"
   inkscape:version="0.92.5 (2060ec1f9f, 2020-04-08)"
   sodipodi:docname="douai-au-coeur.svg">
  <defs
     id="defs885" />
  <sodipodi:namedview
     id="base"
     pagecolor="#ffffff"
     bordercolor="#666666"
     borderopacity="1.0"
     inkscape:pageopacity="0.0"
     inkscape:pageshadow="2"
     inkscape:zoom="0.35"
     inkscape:cx="643.23708"
     inkscape:cy="-28.431611"
     inkscape:document-units="mm"
     inkscape:current-layer="layer1"
     showgrid="false"
     fit-margin-top="10"
     fit-margin-left="10"
     fit-margin-right="10"
     fit-margin-bottom="10"
     inkscape:window-width="1855"
     inkscape:window-height="1056"
     inkscape:window-x="65"
     inkscape:window-y="24"
     inkscape:window-maximized="1" />
  <metadata
     id="metadata888">
    <rdf:RDF>
      <cc:Work
         rdf:about="">
        <dc:format>image/svg+xml</dc:format>
        <dc:type
           rdf:resource="http://purl.org/dc/dcmitype/StillImage" />
        <dc:title></dc:title>
      </cc:Work>
    </rdf:RDF>
  </metadata>
  <g
     inkscape:label="Layer 1"
     inkscape:groupmode="layer"
     id="layer1"
     transform="translate(-4.6508411,0.46737748)">
    <g
       id="g968"
       transform="matrix(0.85197577,0,0,0.85197577,-68.030048,12.35251)">
      <path
         style="fill:#d9002e;fill-opacity:1;fill-rule:evenodd;stroke:none;stroke-width:0.26458332px;stroke-linecap:butt;stroke-linejoin:miter;stroke-opacity:1"
         d="m 204.29092,38.597827 c 21.47822,-13.54511 27.15853,-21.16285 23.96641,-32.3561898 -2.56079,-8.97953 -13.85413,-12.97575 -23.30495,-6.00837999 -11.10348,-7.18533001 -21.1308,-1.64062001 -23.08755,5.94399999 -2.42129,9.3852298 -2.61872,12.5150998 22.42609,32.4205698 z"
         id="path956"
         inkscape:connector-curvature="0"
         sodipodi:nodetypes="cscsc" />
      <rect
         style="opacity:1;fill:#64a820;fill-opacity:1;stroke:none;stroke-width:0.02741593;stroke-miterlimit:4;stroke-dasharray:none;stroke-opacity:1"
         id="rect958"
         width="24.946428"
         height="4.0121951"
         x="211.85045"
         y="3.351562" />
      <rect
         y="12.876708"
         x="211.85045"
         height="4.0121951"
         width="24.946428"
         id="rect960"
         style="opacity:1;fill:#64a820;fill-opacity:1;stroke:none;stroke-width:0.02741593;stroke-miterlimit:4;stroke-dasharray:none;stroke-opacity:1" />
      <rect
         style="opacity:1;fill:#64a820;fill-opacity:1;stroke:none;stroke-width:0.02741593;stroke-miterlimit:4;stroke-dasharray:none;stroke-opacity:1"
         id="rect962"
         width="24.946428"
         height="4.0121951"
         x="211.85045"
         y="22.401855" />
    </g>
    <path
       style="fill:#6d7773;fill-opacity:1;stroke-width:1"
       d="m 55.622245,43.05052 c 0.19515,-0.16196 0.53617,-0.7477 0.75781,-1.30165 l 0.40299,-1.00716 h 3.12645 3.12645 l 0.61948,1.12299 c 0.95554,1.73222 2.42285,2.18652 3.51964,1.08973 0.21914,-0.21914 0.39844,-0.68323 0.39844,-1.0313 0,-0.93497 -4.70709,-11.51272 -5.49875,-12.35678 -0.37365,-0.39837 -1.06364,-0.7964 -1.53333,-0.88451 -1.02579,-0.19244 -2.63022,0.48968 -3.08733,1.31258 -0.96632,1.73961 -5.22642,11.4864 -5.22642,11.95766 0,1.37543 2.20218,2.08803 3.39457,1.09844 z m 2.08963,-3.02894 c 0.4697,-0.0584 1.30314,-0.0594 1.85209,-0.002 0.54894,0.0573 0.16465,0.1051 -0.854,0.10628 -1.01865,10e-4 -1.46779,-0.0457 -0.99809,-0.10414 z m 0.53815,-2.11284 c 0.32912,-0.0633 0.80537,-0.0609 1.05834,0.005 0.25296,0.0662 -0.0163,0.118 -0.5984,0.11506 -0.58208,-0.003 -0.78905,-0.0571 -0.45994,-0.1204 z m 0.0585,-0.80506 c -0.009,-0.39927 1.45509,-4.03489 1.62506,-4.03489 0.14512,0 0.61274,1.04602 1.74464,3.9026 0.0969,0.24444 -0.32506,0.33073 -1.61705,0.33073 -0.96145,0 -1.75015,-0.0893 -1.75265,-0.19844 z m 20.77435,5.87452 c 1.60954,-0.67668 2.50078,-1.40425 3.33875,-2.72559 l 0.76229,-1.202 v -4.62373 c 0,-5.30724 -0.0985,-5.59142 -1.93839,-5.59142 -1.89953,0 -2.03036,0.31007 -2.03036,4.812 0,4.32152 -0.25101,5.40352 -1.43333,6.1782 -1.52352,0.99825 -4.48572,0.35254 -5.15871,-1.12451 -0.16518,-0.36253 -0.28713,-2.29534 -0.28713,-4.55079 0,-3.56576 -0.0496,-3.98372 -0.54837,-4.61776 -0.69964,-0.88944 -2.34667,-0.97711 -3.1558,-0.16798 -0.48515,0.48516 -0.52916,0.88195 -0.52916,4.771 0,3.23284 0.0976,4.47582 0.41028,5.22552 0.77915,1.86808 2.75763,3.43493 5.07572,4.01971 1.36562,0.3445 4.21346,0.13579 5.49421,-0.40265 z M 22.698829,27.76744 c 3.291747,-0.47582 5.600271,-2.23542 6.385406,-4.86708 0.826173,-2.7692 0.211993,-5.19004 -1.818449,-7.16752 -1.925704,-1.87548 -3.217227,-2.24331 -7.876823,-2.24331 -5.103717,0 -4.732118,-0.56815 -4.732118,7.23504 0,7.58751 -0.201716,7.22938 4.101042,7.28111 1.164166,0.014 2.937592,-0.0932 3.940942,-0.23824 z m -3.957294,-3.50948 c -0.07262,-0.18925 -0.09865,-1.94542 -0.05784,-3.90261 l 0.07419,-3.55853 h 2.031751 c 1.646423,0 2.173306,0.10488 2.778125,0.55297 1.031131,0.76393 1.510914,1.85285 1.516491,3.44184 0.0089,2.52274 -1.480981,3.8078 -4.416441,3.80941 -1.229196,8e-4 -1.835824,-0.10737 -1.926278,-0.34308 z m -1.753049,-10.42 c 0.190994,-0.0764 0.4192,-0.067 0.507119,0.0209 0.08792,0.0879 -0.06835,0.15045 -0.347266,0.13896 -0.308226,-0.0127 -0.370919,-0.0754 -0.159853,-0.15985 z m 25.108949,13.63722 c 1.04041,-0.38486 1.96812,-0.99977 2.89398,-1.91823 3.66634,-3.63699 2.42946,-9.34522 -2.52094,-11.63421 -1.82165,-0.8423 -5.96213,-0.81073 -7.894147,0.0602 -2.566904,1.15711 -4.57365,4.07504 -4.57365,6.65034 0,3.03613 2.538296,6.1588 5.820827,7.16092 1.4166,0.43247 4.69273,0.26588 6.27393,-0.31902 z m -5.77116,-3.1731 c -2.539177,-1.47263 -2.621703,-5.37255 -0.15264,-7.21302 0.57584,-0.42923 1.1322,-0.55682 2.428,-0.55682 1.29579,0 1.85216,0.12759 2.42799,0.55682 2.41012,1.79652 2.32428,5.50293 -0.16632,7.18134 -1.17024,0.78863 -3.20734,0.80285 -4.53703,0.0317 z m -5.74285,-3.27192 c 0.0054,-0.43656 0.06469,-0.58313 0.131774,-0.3257 0.06708,0.25743 0.06267,0.61462 -0.0098,0.79375 -0.07248,0.17913 -0.127363,-0.0315 -0.121971,-0.46805 z m 29.01436,6.0815 c 1.63135,-0.88884 2.84679,-2.2368 3.21718,-3.56796 0.14172,-0.50932 0.25834,-2.74716 0.25915,-4.97296 10e-4,-3.94489 -0.0149,-4.0633 -0.64796,-4.69636 -0.78817,-0.78818 -1.95711,-0.8478 -2.82698,-0.1442 -0.60125,0.48632 -0.62958,0.67297 -0.75692,4.98767 -0.14172,4.80196 -0.20823,5.03864 -1.62124,5.76934 -1.49444,0.77281 -3.89637,0.2597 -4.72592,-1.00956 -0.28662,-0.43855 -0.42537,-1.76001 -0.52671,-5.01651 -0.12516,-4.02188 -0.18537,-4.45717 -0.66675,-4.82024 -0.87101,-0.65693 -2.51415,-0.40101 -3.10481,0.48357 -0.10691,0.16012 -0.19621,2.28925 -0.19843,4.73139 -0.005,5.15621 0.12982,5.64954 1.98621,7.2836 1.67242,1.47212 3.11997,1.9151 5.94723,1.81995 1.89949,-0.0639 2.46916,-0.19566 3.66595,-0.84773 z m 7.3662,0.33464 c 0.29757,-0.32742 0.70666,-0.9525 0.90907,-1.38906 l 0.36803,-0.79375 3.08977,-0.0744 3.08975,-0.0744 0.5203,1.17626 c 0.28618,0.64694 0.76182,1.3055 1.05699,1.46347 1.2733,0.68145 2.95269,-0.008 2.95269,-1.2114 0,-0.37116 -1.15445,-3.2974 -2.56547,-6.50275 -2.79723,-6.35441 -3.14349,-6.81228 -5.15329,-6.81432 -1.71866,-0.002 -2.27373,0.76052 -5.07173,6.96508 -1.40544,3.11654 -2.55534,5.97254 -2.55534,6.34664 0,1.41886 2.32416,2.04752 3.35923,0.90864 z m 2.65943,-5.64506 c -0.1538,-0.15379 1.26556,-3.75685 1.63582,-4.1525 0.16023,-0.17123 0.76851,1.15998 1.7567,3.84444 0.15118,0.41068 -0.0222,0.46302 -1.53355,0.46302 -0.93721,0 -1.77374,-0.0697 -1.85897,-0.15496 z m 1.3284,-5.18128 c 0.15377,-0.15375 0.43574,-0.22748 0.62661,-0.16386 0.19817,0.0661 0.0782,0.18599 -0.27953,0.27955 -0.44011,0.11509 -0.5434,0.0806 -0.34708,-0.11569 z m 12.18221,10.88218 c 0.56449,-0.52588 0.57906,-0.69867 0.57906,-6.85996 v -6.32049 l -0.69715,-0.54837 c -0.88246,-0.69415 -2.05925,-0.70239 -2.74243,-0.0192 -0.5003,0.5003 -0.52917,0.88194 -0.52917,6.99645 0,6.38318 0.008,6.47265 0.58804,6.87917 0.81994,0.57431 2.11138,0.51549 2.80165,-0.1276 z"
       id="path1467"
       inkscape:connector-curvature="0"
       sodipodi:nodetypes="ccccccsscccsccccccccccccscsccccssscssccsccccccsscccccsscccccccccccccsscccssccccccccsccccsscscccccsccccccsscccscccccsccccccscccscc" />
  </g>
</svg>
